<svg id="Capa_1" enable-background="new 0 0 512 512" height="512" viewBox="0 0 512 512" width="512" xmlns="http://www.w3.org/2000/svg"><g><path d="m481.877 501.851v-36.947c0-32.927-21.108-62.144-52.368-72.488l-103.242-34.161c-10.42-3.448-17.456-13.187-17.456-24.163v-57.966h-105.622v57.966c0 10.976-7.036 20.715-17.456 24.163l-103.242 34.162c-31.26 10.343-52.368 39.561-52.368 72.488v36.947c0 5.605 4.544 10.149 10.149 10.149h431.456c5.605-.001 10.149-4.545 10.149-10.15z" fill="#ce9775"/><g><path d="m263.611 390.915v113.474c0 4.204-3.408 7.612-7.611 7.612s-7.611-3.408-7.611-7.612v-113.474z" fill="#c6855b"/></g><path d="m429.509 392.417-103.242-34.161c-10.42-3.448-17.456-13.187-17.456-24.163v-57.966h-30.446v57.966c0 10.975 7.036 20.715 17.456 24.163l103.242 34.161c31.26 10.343 52.368 39.561 52.368 72.488v36.947c0 5.605-4.544 10.149-10.149 10.149h30.446c5.605 0 10.149-4.544 10.149-10.149v-36.947c0-32.927-21.108-62.145-52.368-72.488z" fill="#c6855b"/><path d="m326.267 358.256c-10.42-3.448-17.456-13.187-17.456-24.163v-57.966h-105.622v57.966c0 10.976-7.036 20.715-17.456 24.163l70.267 32.659z" fill="#f1ccbd"/><path d="m203.189 276.127v34.686c9.998 13.634 23.801 24.444 40.152 30.778l18.823 7.292c5.828 2.258 12.288 2.258 18.116 0l18.823-7.292c3.416-1.324 6.714-2.853 9.897-4.552-.113-.971-.19-1.952-.19-2.947v-57.966h-105.621z" fill="#e5a193"/><path d="m240.777 316.05-12.658-4.904c-31.192-12.084-53.137-40.436-57.013-73.662l-8.921-76.464h187.631l-8.921 76.464c-2.725 23.353-14.375 44.298-31.888 58.88-7.405 6.164-68.23 19.686-68.23 19.686z" fill="#f1ccbd"/><g><path d="m354.222 134.877h-196.444v-36.655c0-54.246 43.975-98.222 98.222-98.222 54.247 0 98.222 43.976 98.222 98.222z" fill="#ce9775"/><path d="m256 0c-5.178 0-10.261.403-15.223 1.175 47.017 7.316 83 47.978 83 97.047v36.655h30.446v-36.655c0-54.246-43.976-98.222-98.223-98.222z" fill="#c6855b"/><path d="m157.778 102.023h196.445v47.632h-196.445z" fill="#655e67"/><path d="m323.777 102.023h30.446v32.854h-30.446z" fill="#544f56"/><path d="m349.815 161.02h-30.446-157.184l4.853 41.597c26.89 2.824 56.471 4.638 88.374 4.66 17.499.012 34.299-.518 50.344-1.458 4.41-.258 7.976 3.523 7.464 7.911l-2.771 23.753c-3.876 33.226-25.821 61.578-57.013 73.662l-12.659 4.904 6.165 2.388c5.828 2.257 12.289 2.257 18.117 0l18.823-7.292c31.192-12.083 53.136-40.436 57.013-73.661l4.068-34.867z" fill="#eaac9d"/><path d="m369.23 169.941c1.716 4.008-.868 8.552-5.192 9.105-32.059 4.098-68.518 6.905-108.625 6.877-39.635-.027-75.694-2.818-107.449-6.877-4.325-.553-6.908-5.097-5.192-9.105 5.002-11.688 10.005-23.375 15.007-35.063h196.445z" fill="#f3dcb0"/><path d="m369.23 169.941-15.007-35.063h-30.446l16.367 46.878c8.21-.815 16.183-1.723 23.894-2.709 1.79-.229 3.414-1.198 4.462-2.638 1.3-1.79 1.695-4.214.73-6.468z" fill="#eecb81"/></g><path d="m337.7 362.039-47.919 52.183c-2.734 2.977-7.398 3.077-10.256.218l-23.525-23.525 52.896-54.739z" fill="#f3dcb0"/><path d="m308.896 336.175-12.164 12.588c8.139 7.308 8.743 19.855 1.345 27.911l-26.959 29.358 8.407 8.407c2.858 2.858 7.522 2.759 10.256-.218l47.919-52.182z" fill="#eecb81"/><g fill="#f3dcb0"><path d="m174.3 362.039 47.919 52.183c2.734 2.977 7.398 3.077 10.256.218l23.525-23.525-52.896-54.739z"/><path d="m329.313 512v-37.507c0-3.363 2.726-6.089 6.089-6.089h67.071c3.363 0 6.089 2.726 6.089 6.089v37.507z"/><path d="m103.437 512v-37.507c0-3.363 2.726-6.089 6.089-6.089h67.071c3.363 0 6.089 2.726 6.089 6.089v37.507z"/></g></g></svg>