<svg enable-background="new 0 0 100 100" height="512" viewBox="0 0 100 100" width="512" xmlns="http://www.w3.org/2000/svg"><path d="m84.0712967 14.829236c-3.4214935-2.8636675-8.4329147-2.8113146-12.0180435-.1553173l-5.2433929 3.3369055c-.6978607.5169506-1.8338928.5052795-2.4565811-.1000004-4.0217438-3.9089794-24.6848145-3.9089794-28.706562 0-.6226845.6052799-1.7587128.616951-2.4565773.1000004l-5.2433949-3.3369055c-3.5851288-2.6559973-8.5965462-2.7083502-12.0180407.1553173-3.9167824 3.2781687-4.5365038 8.9720411-1.556139 12.9949484l3.7229738 5.7646637c.7414474 1.0007629 1.1417007 2.2132568 1.1417007 3.4586945 0 13.3273277 3.1022091 29.6208916 8.5452919 36.7688866 1.5390377 2.0211105 11.2615776 8.6141891 11.6312256 9.9365921l.4060898 1.4527817 1.752655-1.1040726 2.8092537 3.2167435 2.8091202-3.2167435 2.809124 3.2167434 2.809124-3.2167435 2.8091202 3.2167435 2.8092537-3.2167435 1.752655 1.1040726.4060898-1.4527817c.369648-1.322403 10.092186-7.9154816 11.6312256-9.9365921 5.4430847-7.147995 8.5452881-23.4415588 8.5452881-36.7688866 0-1.2454376.4002533-2.4579315 1.1417084-3.4586945l3.7229691-5.7646637c2.9803694-4.0229071 2.3606414-9.7167796-1.5561372-12.9949483z" fill="#fcd462"/><path d="m32.2330971 38.2079697c1.6640663-.133522 3.3464622-.2664604 4.9959946-.0095901 1.6495323.2568741 3.2883186.944603 4.3798599 2.2077217 1.5053329 1.741951 1.7287636 4.2418518 1.5961533 6.5402946-.0244904.4244804-.0827255.8971748-.4108887 1.1675339-.3654709.3010941-.9211235.2175941-1.3375587-.0078087-.4164352-.225399-.7603836-.5689087-1.1798706-.788578-1.0432854-.5463333-2.3020058-.2328262-3.4659462-.0534935-1.2675972.1953049-2.5853882.2106018-3.8110008-.1673012-1.2254562-.3778572-2.3532562-1.1833458-2.9342861-2.3265381-.8689117-1.7096024-.7867851-3.3316879-2.1296463-4.7935143-.7125931-.7757225-.8394012-1.1443291.3252201-1.4388237 1.2326831-.3117027 2.7048892-.2282333 3.9719695-.3299026z" fill="#3a556a"/><circle cx="35.622" cy="42.197" fill="#e1e6e9" r="3.319"/><circle cx="35.622" cy="42.197" fill="#3a556a" r="1.635"/><path d="m67.7668991 38.2079697c-1.6640625-.133522-3.3464584-.2664604-4.9959908-.0095901-1.6495323.2568741-3.2883186.944603-4.3798599 2.2077217-1.5053329 1.741951-1.7287636 4.2418518-1.5961533 6.5402946.0244904.4244804.0827255.8971748.4108887 1.1675339.3654709.3010941.9211235.2175941 1.3375587-.0078087.4164352-.225399.7603836-.5689087 1.1798706-.788578 1.0432854-.5463333 2.3020058-.2328262 3.4659462-.0534935 1.2675972.1953049 2.5853844.2106018 3.8110008-.1673012 1.2254562-.3778572 2.3532562-1.1833458 2.934288-2.3265381.8689117-1.7096024.7867813-3.3316879 2.1296463-4.7935143.7125931-.7757225.8394012-1.1443291-.3252258-1.4388237-1.2326812-.3117027-2.7048873-.2282333-3.9719695-.3299026z" fill="#3a556a"/><circle cx="64.378" cy="42.197" fill="#e1e6e9" r="3.319"/><circle cx="64.378" cy="42.197" fill="#3a556a" r="1.635"/><path d="m82.7009811 19.4183331-2.012619-2.0557709c-1.6528397-1.6882887-4.3613586-1.717041-6.0496674-.0642223l-3.6124954 3.5365448c-.828537.811121-.8426666 2.1403236-.0315552 2.968874l5.0605927 5.1693974c.8111191.8285561 2.1403351.8426933 2.9688873.0315781l3.612587-3.5365391c1.6884079-1.6528627 1.7171784-4.3615076.06427-6.049862z" fill="#f6c358"/><path d="m17.2990208 19.4183331 2.0126133-2.0557709c1.6528454-1.6882887 4.3613625-1.717041 6.049675-.0642223l3.6124897 3.5365448c.8285389.811121.8426666 2.1403236.0315571 2.968874l-5.0605927 5.1693974c-.8111153.8285561-2.1403332.8426933-2.9688892.0315781l-3.612587-3.5365391c-1.6884041-1.6528627-1.7171774-4.3615076-.0642662-6.049862z" fill="#f6c358"/><path d="m40.7239914 64.598175c.4066963.6438217 1.2544937.8622437 2.0152817.8289261.7607841-.0333176 1.5048103-.2606964 2.2662239-.2731628 1.6908378-.0276794 3.3034363.6351471 4.994503.6351471s3.3036652-.6628265 4.994503-.6351471c.7614136.0124664 1.5054398.2398453 2.2662239.2731628.760788.0333176 1.6085854-.1851044 2.0152817-.8289261l-1.1912422 10.3259277s-7.809967 1.4505539-7.8181076 1.4822235-6.1047745-3.3848648-6.1047745-3.3848648-4.1598282-5.6726303-4.1598282-5.9353561.7219353-2.4879303.7219353-2.4879303z" fill="#64798a"/><path d="m58.8293571 62.4104385c.1197662.947258.2723923 1.9134674.0831947 2.8493347-.3209457 1.5875626-1.5742111 2.8264465-2.9256744 3.7191467-1.3514595.8927078-2.8594589 1.5470428-4.1325417 2.5483627-1.2730789 1.0013123-2.3260803 2.4814911-2.247261 4.0992584.1110497 2.2791367 2.3486061 3.8602371 4.5121994 4.5852814 2.7893867.9347534 5.8471718 1.052597 8.7002296.335289.5899124-.1483154 1.1772079-.3340988 1.7000198-.6450043 1.4111328-.8391953 2.152977-2.451622 2.6722412-4.0091476.8113327-2.4335785 1.2843246-5.0651321.7094803-7.5651474-.3809738-1.6568451-1.2017517-3.1740646-2.0155029-4.666748-.8524857-1.563755-1.7157288-3.1388245-2.871994-4.4934959-.7152596-.8379936-2.6427879-3.0199852-3.9837608-2.178566-1.2126846.7609253-.3516883 4.2267113-.2006302 5.4214363z" fill="#e1e6e9"/><path d="m41.1706429 62.4104385c-.1197662.947258-.2723923 1.9134674-.0831947 2.8493347.3209457 1.5875626 1.5742111 2.8264465 2.9256744 3.7191467 1.3514595.8927078 2.8594589 1.5470428 4.1325417 2.5483627 1.2730789 1.0013123 2.3260803 2.4814911 2.247261 4.0992584-.1110497 2.2791367-2.3486061 3.8602371-4.5121994 4.5852814-2.7893867.9347534-5.8471718 1.052597-8.7002296.335289-.5899124-.1483154-1.1772079-.3340988-1.700016-.6450043-1.4111328-.8391953-2.1529846-2.451622-2.6722488-4.0091476-.8113251-2.4335785-1.2843227-5.0651321-.7094727-7.5651474.38097-1.6568451 1.2017517-3.1740646 2.0154953-4.666748.8524933-1.563755 1.7157326-3.1388245 2.8719978-4.4934959.7152596-.8379936 2.6427879-3.0199852 3.9837608-2.178566 1.2126846.7609253.3516883 4.2267113.2006302 5.4214363z" fill="#e1e6e9"/><g fill="#64798a"><circle cx="59.322" cy="71.358" r="1.237"/><circle cx="63.962" cy="69.108" r="1.237"/><circle cx="64.359" cy="74.258" r="1.237"/><circle cx="62.223" cy="63.957" r="1.237"/><circle cx="54.832" cy="74.258" r="1.237"/><circle cx="59.75" cy="77.396" r="1.237"/><circle cx="40.678" cy="71.358" r="1.237"/><circle cx="36.038" cy="69.108" r="1.237"/><circle cx="35.641" cy="74.258" r="1.237"/><circle cx="37.777" cy="63.957" r="1.237"/><circle cx="45.168" cy="74.258" r="1.237"/><circle cx="40.25" cy="77.396" r="1.237"/></g><path d="m57.3690224 79.1772385c-1.1582794-.2066803-2.2818527-.4748154-3.3614502-.830368-1.0920029-.3200684-2.1178856-.7779083-3.1354446-1.2387619l-.8694572-.3936768-.8747978.3936768c-1.0186577.4585114-2.044384.9163513-3.1365471 1.2346878-1.078968.3573608-2.2030106.620285-3.3606606.8293915-2.3208046.4304276-4.7542152.611908-7.3866158.6374207 1.0781822.7656021 2.3241005 1.2472916 3.5979767 1.6420975 1.2818832.3775177 2.6245461.577713 3.9865265.6317596 1.3624535.0641708 2.7467346-.0533676 4.1027489-.3393173 1.0568237-.1960449 2.0768967-.5438156 3.0705833-.9533463.9930611.4078674 2.012188.7548141 3.0679131.9492722 1.3553848.2877579 2.740139.4001617 4.101963.3384094 1.3616676-.0548019 2.7038612-.2545471 3.9855881-.6316833 1.2738724-.3928452 2.5194778-.8746109 3.5986023-1.6371918-2.6309853-.0207597-5.0654984-.2006456-7.3869286-.6323701z" fill="#3a556a"/><path d="m49.4163704 71.2569885c.2472153.4830704.9200439.4830704 1.1672592 0 .3265648-.6381378.7318726-1.2239075 1.297184-1.6502533.267746-.2019348.565197-.3608627.8665199-.5080643.8377342-.4092407 1.7164841-.7344742 2.6187935-.9692535.2359161-.0613785.4886818-.1254196.6514511-.3068924.3161278-.3524475.1216125-.9054718-.0869026-1.3305359-.0477333-.0973053-.1004066-.2000732-.1939621-.2547913-.0984993-.0576096-.2205963-.0494232-.3342476-.0392151-1.8085975.1624757-3.6111069.3927308-5.4024658.6901399-1.7913589-.2974091-3.5938683-.5276642-5.4024658-.6901398-.1136513-.0102081-.2357483-.0183945-.3342476.0392151-.0935555.054718-.1462288.157486-.1939621.2547913-.2085152.4250641-.4030304.9780884-.0869026 1.3305359.1627693.1814728.415535.2455139.6514511.3068924.9023094.2347794 1.7810593.5600128 2.6187935.9692535.3013229.1472015.598774.3061295.8665199.5080643.5653114.4263458.9706192 1.0121154 1.297184 1.6502532z" fill="#e56353"/></svg>