<?xml version="1.0" encoding="iso-8859-1"?>
<!-- Generator: Adobe Illustrator 19.0.0, SVG Export Plug-In . SVG Version: 6.00 Build 0)  -->
<svg version="1.1" id="Capa_1" xmlns="http://www.w3.org/2000/svg" xmlns:xlink="http://www.w3.org/1999/xlink" x="0px" y="0px"
	 viewBox="0 0 512 512" style="enable-background:new 0 0 512 512;" xml:space="preserve">
<path style="fill:#FFA81F;" d="M421.298,327.4l-30-120c-1.5-6.601-7.5-11.4-14.399-11.4h-150c-9.901,0-16.8,9.3-14.399,18.6l30,120
	c1.5,6.599,7.5,11.4,14.399,11.4h150C416.799,346,423.699,336.7,421.298,327.4z"/>
<path style="fill:#FF9800;" d="M406.899,346h-150V196h120c6.899,0,12.9,4.799,14.399,11.4l30,120
	C423.699,336.7,416.799,346,406.899,346z"/>
<path style="fill:#FFDA2D;" d="M271.298,327.4l-14.399-57.9l-18.3-73.5H135.102c-6.899,0-12.9,4.799-14.399,11.4l-30,120
	c-2.401,9.3,4.499,18.6,14.399,18.6h151.797C266.799,346,273.699,336.7,271.298,327.4z"/>
<g>
	<path style="fill:#FFA81F;" d="M271.899,61v45c0,9.899-7.5,15-15,15c-7.5,0-15-5.101-15-15V61c0-8.401,6.599-15,15-15
		C265.3,46,271.899,52.599,271.899,61z"/>
	<path style="fill:#FFA81F;" d="M135.878,125.746l-15-45c-6.279-18.837,22.215-28.259,28.447-9.492l15,45
		C170.598,135.073,142.177,144.642,135.878,125.746z"/>
	<path style="fill:#FFA81F;" d="M51.781,193.48l-45-30c-16.392-10.928,0.014-35.976,16.641-24.961l45,30
		C84.932,179.527,68.321,204.444,51.781,193.48z"/>
</g>
<g>
	<path style="fill:#FF9800;" d="M347.675,116.254l15-45c6.232-18.767,34.726-9.345,28.447,9.492l-15,45
		C369.824,144.642,341.377,135.15,347.675,116.254z"/>
	<path style="fill:#FF9800;" d="M443.579,168.52l45-30c16.556-11.037,33.061,14.014,16.641,24.961l-45,30
		C443.501,204.563,427.242,179.411,443.579,168.52z"/>
	<path style="fill:#FF9800;" d="M256.899,121V46c8.401,0,15,6.599,15,15v45C271.899,115.899,264.399,121,256.899,121z"/>
</g>
<path style="fill:#FFBC33;" d="M256.899,346v-76.5l14.399,57.9C273.699,336.7,266.799,346,256.899,346z"/>
<path style="fill:#FFDA2D;" d="M179.647,447.367C182.021,456.8,174.868,466,165.102,466h-150c-9.767,0-16.92-9.2-14.546-18.633
	l30-120c1.67-6.68,7.661-11.367,14.546-11.367h90c6.885,0,12.876,4.688,14.546,11.367L179.647,447.367z"/>
<path style="fill:#FFDE33;" d="M328.599,316h-101.7c-6.899,0-12.9,4.799-14.399,11.4l-31.797,120c-2.401,9.3,4.499,18.6,14.399,18.6
	H366.1L328.599,316z"/>
<path style="fill:#FF9800;" d="M511.445,447.367C513.818,456.8,506.666,466,496.899,466h-150c-6.885,0-12.876-4.688-14.546-11.367
	l-30-120C299.979,325.2,307.132,316,316.899,316h150c6.885,0,12.876,4.688,14.546,11.367L511.445,447.367z"/>
<path style="fill:#FFA81F;" d="M208.603,466h-55.206l-37.5-150h130.206L208.603,466z"/>
<polygon style="fill:#FFBC33;" points="366.099,466 256.899,466 256.899,316 328.599,316 "/>
<g>
</g>
<g>
</g>
<g>
</g>
<g>
</g>
<g>
</g>
<g>
</g>
<g>
</g>
<g>
</g>
<g>
</g>
<g>
</g>
<g>
</g>
<g>
</g>
<g>
</g>
<g>
</g>
<g>
</g>
</svg>
