<svg id="Layer_1" enable-background="new 0 0 512 512" height="512" viewBox="0 0 512 512" width="512" xmlns="http://www.w3.org/2000/svg"><g><path d="m307.822 497c6.086 0 10.76-5.39 9.9-11.414l-46.873-328.107c-1.056-7.39-7.384-12.879-14.849-12.879s-13.793 5.489-14.849 12.879l-46.873 328.107c-.861 6.024 3.814 11.414 9.899 11.414z" fill="#d26432"/><path d="m317.722 485.586-46.873-328.107c-1.056-7.389-7.383-12.878-14.847-12.879v352.4h51.82c6.086 0 10.76-5.39 9.9-11.414z" fill="#a54628"/><path d="m413.125 6.739c-2.812-4.302-7.745-6.739-12.884-6.739h-71.941c-31.115 0-57.241 16.245-72.298 38.375-15.156-22.277-41.413-38.375-72.302-38.375h-71.941c-5.139 0-10.073 2.437-12.885 6.739-3.979 6.085-3.033 13.916 1.919 18.868l144.6 144.6c5.858 5.858 15.355 5.858 21.213 0l144.6-144.6c4.952-4.952 5.898-12.783 1.919-18.868z" fill="#c8ff50"/><path d="m411.207 25.606c4.952-4.952 5.897-12.783 1.919-18.868-2.813-4.301-7.746-6.738-12.885-6.738h-71.941c-31.115 0-57.241 16.245-72.298 38.375v136.225c3.838 0 7.676-1.465 10.605-4.393z" fill="#87e752"/><path d="m368.467 512h-224.934c-8.284 0-15-6.716-15-15s6.716-15 15-15h224.934c8.284 0 15 6.716 15 15s-6.716 15-15 15z" fill="#c8ff50"/><path d="m507.617 149.004s-15.429-15.461-35.29-35.323c-53.07-52.939-138.593-52.931-191.667.013-9.709 9.709-18.355 18.362-24.66 24.675-6.307-6.315-14.956-14.972-24.673-24.688-53.069-52.939-138.593-52.931-191.667.014-19.849 19.848-35.278 35.31-35.278 35.31-4.284 4.292-5.561 10.742-3.237 16.343 2.324 5.601 7.791 9.252 13.855 9.252h482c6.064 0 11.532-3.651 13.855-9.252 2.323-5.602 1.046-12.051-3.238-16.344z" fill="#87e752"/><path d="m510.855 165.348c2.324-5.602 1.046-12.051-3.237-16.343 0 0-15.429-15.461-35.29-35.323-53.07-52.939-138.593-52.931-191.667.013-9.708 9.708-18.353 18.36-24.658 24.673v36.232h240.997c6.064 0 11.531-3.651 13.855-9.252z" fill="#4ec95f"/><path d="m383.467 497c0-8.284-6.716-15-15-15h-112.465v30h112.465c8.284 0 15-6.716 15-15z" fill="#87e752"/><path d="m328.3 144.6h-144.6c-47.552 0-87.3 38.498-87.3 87.3v72.3c0 6.067 3.655 11.537 9.26 13.858 1.856.769 3.805 1.142 5.737 1.142 3.904 0 7.741-1.524 10.61-4.394l133.993-133.993 133.994 133.994c2.87 2.87 6.706 4.394 10.61 4.394 1.932 0 3.881-.374 5.737-1.142 5.605-2.322 9.26-7.792 9.26-13.858v-72.3c-.001-48.764-39.709-87.301-87.301-87.301z" fill="#4ec95f"/><path d="m400.604 319.201c1.932 0 3.881-.374 5.737-1.142 5.605-2.322 9.26-7.792 9.26-13.858v-72.3c0-48.763-39.708-87.3-87.3-87.3h-72.298v36.215l133.992 133.992c2.868 2.869 6.704 4.393 10.609 4.393z" fill="#14aa6b"/></g></svg>